<svg width="191" height="27" viewBox="0 0 191 27" xmlns="http://www.w3.org/2000/svg"><g fill="none"><path fill="#FFF" d="M5.454 4.888h11.18v14.339H5.454z"/><path fill="#112E51" d="M35.36 3.848h-4.004V21.6h11.615v-3.504H35.36zm19.994-.13c-5.428 0-9.535 3.829-9.535 9.002 0 5.175 4.107 9.055 9.535 9.055s9.535-3.9 9.535-9.054c0-5.155-4.107-9.003-9.535-9.003zm.052 14.553a5.518 5.518 0 01-5.48-5.55 5.46 5.46 0 015.48-5.506 5.532 5.532 0 010 11.063v-.006zM78.383 7.196a7.43 7.43 0 014.869 1.95l2.255-2.867a11.186 11.186 0 00-7.15-2.6c-5.531 0-9.684 3.9-9.684 9.002 0 5.103 4.127 9.094 9.483 9.094a13.136 13.136 0 007.202-2.275v-7.664h-6.572v3.114H81.9v2.34a8.073 8.073 0 01-3.471.962 5.538 5.538 0 11-.046-11.056zm12.753-3.348h4.011V21.6h-4.011zm22.445 11.407l-8.626-11.407h-3.653V21.6h3.835V10.21l8.594 11.388h3.653V3.848h-3.803zm11.355 1.859a2.203 2.203 0 00-2.255 2.314 2.256 2.256 0 004.511 0 2.184 2.184 0 00-2.255-2.314zm15.048-9.918a7.43 7.43 0 014.868 1.95l2.256-2.867a11.186 11.186 0 00-7.15-2.6c-5.531 0-9.685 3.9-9.685 9.002 0 5.103 4.108 9.094 9.477 9.094a13.137 13.137 0 007.208-2.275v-7.664H140.4v3.114h3.1v2.34a8.073 8.073 0 01-3.47.962 5.538 5.538 0 11-.046-11.056zm20.95-3.478c-5.428 0-9.536 3.829-9.536 9.002 0 5.175 4.108 9.055 9.536 9.055 5.427 0 9.535-3.9 9.535-9.054 0-5.155-4.108-9.003-9.535-9.003zm.052 14.553a5.519 5.519 0 01-5.48-5.55 5.46 5.46 0 015.48-5.506 5.532 5.532 0 010 11.063v-.006zm25.363-14.423l-4.869 13.39-4.843-13.39h-4.309l6.975 17.752h4.133l7.046-17.752z"/><path d="M8.014 16.9l.943-5.382a2.854 2.854 0 011.761-5.109V.436h-7.28a2.821 2.821 0 00-2.82 2.82V17.09c-.003.26.055.518.168.754.611 1.235 3.023 5.2 9.926 8.248v-8.97c-.904.004-1.806-.07-2.697-.221z" fill="#E21D3E"/><path d="M17.979.416h-7.267v5.973a2.853 2.853 0 011.787 5.09l.943 5.408c-.901.157-1.815.235-2.73.234v8.957c6.896-3.035 9.314-7.014 9.925-8.248.114-.236.172-.494.17-.754V3.25A2.821 2.821 0 0017.979.416z" fill="#B51E23"/></g></svg>